<?xml version="1.0" standalone="no"?>
<!DOCTYPE svg PUBLIC "-//W3C//DTD SVG 20010904//EN"
 "http://www.w3.org/TR/2001/REC-SVG-20010904/DTD/svg10.dtd">
<svg version="1.0" xmlns="http://www.w3.org/2000/svg"
 width="423.000000pt" height="429.000000pt" viewBox="0 0 423.000000 429.000000"
 preserveAspectRatio="xMidYMid meet">

<g transform="translate(0.000000,429.000000) scale(0.100000,-0.100000)"
fill="#000000" stroke="none">
<path d="M2193 4283 c-12 -2 -33 -15 -47 -28 -22 -20 -30 -22 -58 -14 -75 21
-150 -25 -163 -101 -4 -23 -15 -49 -24 -58 -57 -56 -316 -409 -496 -677 -124
-184 -196 -284 -238 -329 -15 -16 -27 -33 -27 -39 0 -7 -145 -8 -442 -4 -492
7 -521 5 -600 -52 -84 -61 -113 -156 -80 -268 14 -47 105 -188 174 -269 24
-28 61 -73 83 -100 22 -26 49 -57 61 -69 18 -17 151 -166 208 -234 12 -13 35
-38 51 -56 17 -18 82 -87 145 -155 63 -67 143 -151 177 -186 l61 -63 -50 -103
c-27 -57 -63 -124 -79 -149 -16 -25 -35 -66 -42 -90 -18 -57 -219 -484 -264
-557 -18 -31 -38 -73 -44 -94 -5 -20 -28 -76 -50 -124 -74 -163 -75 -268 0
-343 56 -56 128 -65 241 -32 143 43 203 69 500 223 161 84 206 110 604 352 87
53 161 96 164 96 3 0 36 18 73 41 l68 40 92 -61 c50 -34 156 -93 236 -131 152
-72 244 -126 518 -302 154 -98 314 -213 340 -243 6 -6 36 -31 68 -54 47 -35
66 -43 100 -43 75 0 122 48 122 126 0 28 6 48 21 64 37 40 37 77 0 228 -18 77
-50 212 -71 300 -21 88 -52 223 -71 300 -59 250 -78 342 -109 540 -26 160 -26
161 58 246 39 41 128 134 197 207 69 74 145 155 170 181 59 62 162 178 191
215 13 16 34 41 46 54 31 34 156 218 180 267 28 55 46 150 39 199 -9 53 -40
102 -85 131 -60 39 -130 47 -297 36 -82 -6 -257 -15 -389 -21 -132 -6 -296
-13 -365 -16 l-125 -6 -29 53 c-15 30 -45 88 -66 129 -21 41 -68 125 -105 185
-37 61 -102 166 -143 235 -41 69 -83 136 -92 150 -21 31 -140 286 -140 301 0
26 -62 138 -83 152 -27 17 -81 27 -114 20z"/>
</g>
</svg>
