<?xml version="1.0" standalone="no"?>
<!DOCTYPE svg PUBLIC "-//W3C//DTD SVG 20010904//EN"
 "http://www.w3.org/TR/2001/REC-SVG-20010904/DTD/svg10.dtd">
<svg version="1.0" xmlns="http://www.w3.org/2000/svg"
 width="423.000000pt" height="429.000000pt" viewBox="0 0 423.000000 429.000000"
 preserveAspectRatio="xMidYMid meet">

<g transform="translate(0.000000,429.000000) scale(0.100000,-0.100000)"
fill="#000000" stroke="none">
<path d="M2203 4273 c-12 -2 -34 -16 -49 -29 -24 -23 -31 -25 -65 -16 -21 5
-49 7 -64 5 -39 -8 -82 -54 -95 -103 -6 -24 -27 -62 -46 -84 -121 -146 -264
-341 -440 -603 -70 -103 -163 -235 -206 -292 -44 -57 -82 -111 -86 -119 -5
-13 -62 -14 -464 -9 -441 6 -460 6 -511 -13 -101 -38 -167 -121 -167 -210 0
-86 80 -225 230 -400 141 -163 482 -539 623 -685 115 -119 134 -142 123 -155
-20 -24 -138 -255 -199 -391 -31 -68 -101 -218 -157 -334 -233 -483 -259 -567
-207 -665 44 -84 147 -110 272 -71 226 71 485 205 1045 541 392 235 354 218
399 185 84 -62 152 -102 251 -146 171 -77 334 -172 605 -352 88 -59 194 -134
235 -167 170 -137 178 -143 219 -144 74 -2 125 51 120 122 -2 26 4 48 18 68
36 51 35 76 -1 227 -19 78 -53 221 -75 317 -23 96 -61 258 -85 360 -64 269
-105 500 -106 588 0 43 2 46 199 250 512 533 680 754 699 919 10 91 -38 176
-118 210 -43 19 -133 20 -415 5 -514 -27 -704 -35 -717 -30 -8 3 -43 61 -78
129 -54 106 -282 493 -377 641 -16 25 -57 113 -92 195 -34 81 -69 163 -79 182
-27 55 -83 84 -139 74z m-14 -326 c38 -96 103 -225 148 -295 84 -132 282 -469
345 -587 81 -152 135 -225 180 -244 25 -10 64 -12 168 -7 74 3 292 13 483 21
192 8 374 18 404 22 l55 6 -17 -34 c-34 -66 -126 -188 -237 -315 -180 -204
-470 -506 -478 -497 -5 4 -27 53 -50 108 -22 55 -51 110 -62 122 -25 27 -75
43 -112 36 -36 -7 -82 -54 -89 -91 -8 -39 -1 -61 72 -226 34 -76 61 -142 59
-147 -2 -4 -65 -73 -140 -153 -135 -143 -138 -147 -138 -191 0 -60 38 -104 96
-112 52 -7 82 9 162 86 34 33 62 59 62 57 0 -19 67 -344 95 -461 65 -272 155
-659 155 -667 0 -5 -26 11 -57 35 -77 59 -351 237 -490 320 -125 74 -236 131
-333 172 -62 26 -88 42 -210 127 -99 70 -115 78 -154 78 -46 0 -65 -10 -461
-248 -359 -216 -549 -324 -730 -412 -162 -79 -245 -113 -245 -101 0 14 88 205
198 431 54 113 120 252 145 310 81 185 159 323 230 405 94 110 105 165 45 225
-29 29 -47 35 -99 31 -22 -2 -55 28 -201 181 -371 388 -728 804 -728 847 0 9
128 10 513 5 394 -6 521 -4 549 5 59 19 95 83 78 139 -6 24 1 39 57 115 35 48
111 158 170 245 200 296 354 506 460 625 23 27 48 64 54 82 7 19 14 33 15 32
1 -1 16 -37 33 -80z"/>
</g>
</svg>
